HIERARCHY
ROOT hip
{
  OFFSET 5.51535 103.731 -2.80141
  CHANNELS 6 Xposition Yposition Zposition Zrotation Xrotation Yrotation
  JOINT abdomen
  {
    OFFSET 0 -1.186 -1.5018
    CHANNELS 6 Xposition Yposition Zposition Zrotation Xrotation Yrotation
    JOINT abdomen2
    {
      OFFSET 0 9.964 0.2134
      CHANNELS 6 Xposition Yposition Zposition Zrotation Xrotation Yrotation
      JOINT chest
      {
        OFFSET 0 13.134 -3.2573
        CHANNELS 6 Xposition Yposition Zposition Zrotation Xrotation Yrotation
        JOINT neck
        {
          OFFSET 0 20.686 -1.6905
          CHANNELS 6 Xposition Yposition Zposition Zrotation Xrotation Yrotation
          JOINT head
          {
            OFFSET 0 7.23801 -0.1237
            CHANNELS 6 Xposition Yposition Zposition Zrotation Xrotation Yrotation
            End Site
            {
              OFFSET 0 0 0
            }
          }
        }
        JOINT lCollar
        {
          OFFSET 1.7069 20.075 5.0056
          CHANNELS 6 Xposition Yposition Zposition Zrotation Xrotation Yrotation
          JOINT lShldr
          {
            OFFSET 13.6458 -0.0470195 -4.849
            CHANNELS 6 Xposition Yposition Zposition Zrotation Xrotation Yrotation
            JOINT lForeArm
            {
              OFFSET 28.3255 -0.97589 2.2888
              CHANNELS 6 Xposition Yposition Zposition Zrotation Xrotation Yrotation
              JOINT lHand
              {
                OFFSET 22.1583 -0.529998 10.8316
                CHANNELS 6 Xposition Yposition Zposition Zrotation Xrotation Yrotation
                JOINT lThumb1
                {
                  OFFSET 0.786 0.111997 2.5817
                  CHANNELS 6 Xposition Yposition Zposition Zrotation Xrotation Yrotation
                  JOINT lThumb2
                  {
                    OFFSET 0.360097 -0.877999 4.2331
                    CHANNELS 6 Xposition Yposition Zposition Zrotation Xrotation Yrotation
                    JOINT lThumb2_End
                    {
                      OFFSET 1.8127 -1.21601 2.2227
                      CHANNELS 6 Xposition Yposition Zposition Zrotation Xrotation Yrotation
                      End Site
                      {
                        OFFSET 0.0180981 -0.012195 0.0222007
                      }
                    }
                  }
                }
                JOINT lCarpal1
                {
                  OFFSET 0.9571 1.114 1.7695
                  CHANNELS 6 Xposition Yposition Zposition Zrotation Xrotation Yrotation
                  JOINT lIndex1
                  {
                    OFFSET 4.12461 0.486992 4.1451
                    CHANNELS 6 Xposition Yposition Zposition Zrotation Xrotation Yrotation
                    JOINT lIndex2
                    {
                      OFFSET 3.4052 -1.45401 2.7682
                      CHANNELS 6 Xposition Yposition Zposition Zrotation Xrotation Yrotation
                      JOINT lIndex2_End
                      {
                        OFFSET 1.45309 -1.79499 1.2713
                        CHANNELS 6 Xposition Yposition Zposition Zrotation Xrotation Yrotation
                        End Site
                        {
                          OFFSET 0.0144979 -0.0179083 0.0126995
                        }
                      }
                    }
                  }
                  JOINT lMid1
                  {
                    OFFSET 5.6954 0.209987 2.1184
                    CHANNELS 6 Xposition Yposition Zposition Zrotation Xrotation Yrotation
                    JOINT lMid2
                    {
                      OFFSET 3.9766 -1.53999 2.3863
                      CHANNELS 6 Xposition Yposition Zposition Zrotation Xrotation Yrotation
                      JOINT lMid2_End
                      {
                        OFFSET 1.4042 -1.926 1.125
                        CHANNELS 6 Xposition Yposition Zposition Zrotation Xrotation Yrotation
                        End Site
                        {
                          OFFSET 0.013999 -0.0193044 0.011301
                        }
                      }
                    }
                  }
                }
                JOINT lCarpal2
                {
                  OFFSET 2.0956 0.66 -0.3894
                  CHANNELS 6 Xposition Yposition Zposition Zrotation Xrotation Yrotation
                  JOINT lRing1
                  {
                    OFFSET 5.0395 -0.090013 2.4971
                    CHANNELS 6 Xposition Yposition Zposition Zrotation Xrotation Yrotation
                    JOINT lRing2
                    {
                      OFFSET 3.7921 -1.55199 1.4806
                      CHANNELS 6 Xposition Yposition Zposition Zrotation Xrotation Yrotation
                      JOINT lRing2_End
                      {
                        OFFSET 1.4655 -1.808 0.9609
                        CHANNELS 6 Xposition Yposition Zposition Zrotation Xrotation Yrotation
                        End Site
                        {
                          OFFSET 0.0147015 -0.0181014 0.00959957
                        }
                      }
                    }
                  }
                  JOINT lPinky1
                  {
                    OFFSET 4.9141 -1.269 0.3591
                    CHANNELS 6 Xposition Yposition Zposition Zrotation Xrotation Yrotation
                    JOINT lPinky2
                    {
                      OFFSET 3.1477 -1.685 0.8462
                      CHANNELS 6 Xposition Yposition Zposition Zrotation Xrotation Yrotation
                      JOINT lPinky2_End
                      {
                        OFFSET 0.805498 -1.58501 0.795499
                        CHANNELS 6 Xposition Yposition Zposition Zrotation Xrotation Yrotation
                        End Site
                        {
                          OFFSET 0.00809703 -0.0157944 0.00799848
                        }
                      }
                    }
                  }
                }
              }
            }
          }
        }
        JOINT rCollar
        {
          OFFSET -1.7069 20.075 5.0056
          CHANNELS 6 Xposition Yposition Zposition Zrotation Xrotation Yrotation
          JOINT rShldr
          {
            OFFSET -13.6458 -0.0470107 -4.849
            CHANNELS 6 Xposition Yposition Zposition Zrotation Xrotation Yrotation
            JOINT rForeArm
            {
              OFFSET -28.3255 -0.975895 2.2888
              CHANNELS 6 Xposition Yposition Zposition Zrotation Xrotation Yrotation
              JOINT rHand
              {
                OFFSET -22.1583 -0.530007 10.8316
                CHANNELS 6 Xposition Yposition Zposition Zrotation Xrotation Yrotation
                JOINT rThumb1
                {
                  OFFSET -0.785997 0.112005 2.5817
                  CHANNELS 6 Xposition Yposition Zposition Zrotation Xrotation Yrotation
                  JOINT rThumb2
                  {
                    OFFSET -0.360106 -0.877994 4.2331
                    CHANNELS 6 Xposition Yposition Zposition Zrotation Xrotation Yrotation
                    JOINT rThumb2_End
                    {
                      OFFSET -1.8127 -1.216 2.2227
                      CHANNELS 6 Xposition Yposition Zposition Zrotation Xrotation Yrotation
                      End Site
                      {
                        OFFSET -0.0180972 -0.0121973 0.0222005
                      }
                    }
                  }
                }
                JOINT rCarpal1
                {
                  OFFSET -0.9571 1.114 1.7695
                  CHANNELS 6 Xposition Yposition Zposition Zrotation Xrotation Yrotation
                  JOINT rIndex1
                  {
                    OFFSET -4.1246 0.487011 4.1451
                    CHANNELS 6 Xposition Yposition Zposition Zrotation Xrotation Yrotation
                    JOINT rIndex2
                    {
                      OFFSET -3.4052 -1.45401 2.7682
                      CHANNELS 6 Xposition Yposition Zposition Zrotation Xrotation Yrotation
                      JOINT rIndex2_End
                      {
                        OFFSET -1.4531 -1.795 1.2713
                        CHANNELS 6 Xposition Yposition Zposition Zrotation Xrotation Yrotation
                        End Site
                        {
                          OFFSET -0.0145077 -0.0180048 0.0127017
                        }
                      }
                    }
                  }
                  JOINT rMid1
                  {
                    OFFSET -5.6954 0.210002 2.1184
                    CHANNELS 6 Xposition Yposition Zposition Zrotation Xrotation Yrotation
                    JOINT rMid2
                    {
                      OFFSET -3.9766 -1.54 2.3863
                      CHANNELS 6 Xposition Yposition Zposition Zrotation Xrotation Yrotation
                      JOINT rMid2_End
                      {
                        OFFSET -1.4042 -1.926 1.125
                        CHANNELS 6 Xposition Yposition Zposition Zrotation Xrotation Yrotation
                        End Site
                        {
                          OFFSET -0.0139948 -0.0192916 0.0112994
                        }
                      }
                    }
                  }
                }
                JOINT rCarpal2
                {
                  OFFSET -2.0956 0.66 -0.3894
                  CHANNELS 6 Xposition Yposition Zposition Zrotation Xrotation Yrotation
                  JOINT rRing1
                  {
                    OFFSET -5.03951 -0.0899879 2.4971
                    CHANNELS 6 Xposition Yposition Zposition Zrotation Xrotation Yrotation
                    JOINT rRing2
                    {
                      OFFSET -3.7921 -1.55201 1.4806
                      CHANNELS 6 Xposition Yposition Zposition Zrotation Xrotation Yrotation
                      JOINT rRing2_End
                      {
                        OFFSET -1.4655 -1.808 0.960901
                        CHANNELS 6 Xposition Yposition Zposition Zrotation Xrotation Yrotation
                        End Site
                        {
                          OFFSET -0.0146934 -0.0180999 0.00959832
                        }
                      }
                    }
                  }
                  JOINT rPinky1
                  {
                    OFFSET -4.91411 -1.26899 0.359202
                    CHANNELS 6 Xposition Yposition Zposition Zrotation Xrotation Yrotation
                    JOINT rPinky2
                    {
                      OFFSET -3.14769 -1.68501 0.846199
                      CHANNELS 6 Xposition Yposition Zposition Zrotation Xrotation Yrotation
                      JOINT rPinky2_End
                      {
                        OFFSET -0.805498 -1.585 0.7955
                        CHANNELS 6 Xposition Yposition Zposition Zrotation Xrotation Yrotation
                        End Site
                        {
                          OFFSET -0.00810035 -0.0158035 0.00800029
                        }
                      }
                    }
                  }
                }
              }
            }
          }
        }
      }
    }
  }
  JOINT lThigh
  {
    OFFSET 8.367 -8.2066 0.5982
    CHANNELS 6 Xposition Yposition Zposition Zrotation Xrotation Yrotation
    JOINT lShin
    {
      OFFSET 2.1923 -43.463 -0.4932
      CHANNELS 6 Xposition Yposition Zposition Zrotation Xrotation Yrotation
      JOINT lFoot
      {
        OFFSET 0.733301 -45.8593 -2.6451
        CHANNELS 6 Xposition Yposition Zposition Zrotation Xrotation Yrotation
        End Site
        {
          OFFSET 2.6618 -4.2699 12.3931
        }
      }
    }
  }
  JOINT rThigh
  {
    OFFSET -8.367 -8.2066 0.5982
    CHANNELS 6 Xposition Yposition Zposition Zrotation Xrotation Yrotation
    JOINT rShin
    {
      OFFSET -2.1923 -43.463 -0.4931
      CHANNELS 6 Xposition Yposition Zposition Zrotation Xrotation Yrotation
      JOINT rFoot
      {
        OFFSET -0.733299 -45.8593 -2.6451
        CHANNELS 6 Xposition Yposition Zposition Zrotation Xrotation Yrotation
        End Site
        {
          OFFSET -2.6618 -4.2699 12.3931
        }
      }
    }
  }
}
MOTION
Frames:	4
Frame Time:	0.0333333
-9.39967 114.803 -15.1121 165.1 -6.60782 123.396 6.7965e-008 -1.18599 -1.5018 -0.207301 -6.30627 -1.34305 -7.32867e-008 9.96399 0.2134 -0.569506 -12.6058 -2.73429 -4.3989e-007 13.134 -3.2573 -0.569504 -12.6058 -2.73428 1.13113e-006 20.686 -1.6905 -7.24622 -18.0924 -4.95123 7.48923e-006 7.23801 -0.1237 -1.843 -7.36174 -0.234562 1.7069 20.075 5.0056 37.9176 1.80553 1.03484 13.6458 -0.0470155 -4.849 -21.3684 -56.0071 -39.4245 28.3255 -0.975886 2.2888 -58.706 -28.9733 -127.336 22.1583 -0.529989 10.8316 93.0998 42.0281 -53.903 0.786003 0.111997 2.5817 8.00171 6.68078 -23.6257 0.360098 -0.877999 4.2331 3.52299 0.626557 6.50127 1.8127 -1.21601 2.2227 7.01882 1.67111 13.076 0.9571 1.114 1.7695 -7.95139e-016 -6.36111e-015 -3.18055e-015 4.1246 0.486993 4.1451 14.1035 3.54579 -9.33298 3.4052 -1.45401 2.7682 7.41596 -3.5149 -2.84402 1.4531 -1.79499 1.2713 7.03253 -3.32251 -2.70694 5.6954 0.209987 2.1184 25.4241 -19.4185 -2.85746 3.9766 -1.53999 2.3863 7.6506 -4.02193 -2.95836 1.4042 -1.926 1.125 17.3996 -9.78524 -5.99621 2.0956 0.66 -0.3894 -7.95139e-016 -6.36111e-015 -3.18055e-015 5.0395 -0.0900138 2.4971 36.8058 -18.3153 9.2039 3.7921 -1.55199 1.4806 10.9089 -6.41515 -4.70668 1.4655 -1.808 0.960899 20.0872 -12.6075 -7.79611 4.9141 -1.269 0.3591 39.284 -12.5188 18.1521 3.1477 -1.685 0.846201 16.6393 -10.8425 -6.53595 0.805499 -1.58501 0.7955 17.35 -11.3559 -6.75068 -1.7069 20.075 5.0056 -29.042 -1.28153 -2.80147 -13.6458 -0.047015 -4.849 11.7103 -33.3439 37.3082 -28.3255 -0.975893 2.2888 72.6741 -18.7825 142.85 -22.1583 -0.53001 10.8316 -122.07 19.5475 83.5531 -0.786001 0.112005 2.5817 -17.4417 6.36699 5.59855 -0.360106 -0.877994 4.2331 -6.60185 8.91708 -25.2196 -1.8127 -1.216 2.2227 -8.33808 14.2927 -37.852 -0.9571 1.114 1.7695 7.95139e-016 -3.18055e-015 -1.27222e-014 -4.12461 0.48701 4.1451 -10.4517 6.11991 6.72068 -3.4052 -1.45401 2.7682 -2.94061 -0.993164 0.388037 -1.4531 -1.79499 1.2713 -2.51273 -0.847018 0.334472 -5.6954 0.21 2.1184 -23.5425 -13.407 -3.92008 -3.9766 -1.54 2.3863 -3.33291 -1.26914 0.4217 -1.4042 -1.926 1.125 -14.4441 -5.64978 1.28735 -2.0956 0.66 -0.3894 7.95139e-016 -3.18055e-015 -1.27222e-014 -5.03951 -0.0899882 2.4971 -31.7317 -10.1428 -15.3842 -3.7921 -1.552 1.4806 -7.33171 -3.13325 1.12872 -1.4655 -1.808 0.9609 -18.0828 -7.94423 2.04875 -4.91411 -1.26899 0.359202 -36.0948 -3.21411 -23.8488 -3.1477 -1.68501 0.846198 -13.8842 -6.44986 1.56977 -0.8055 -1.585 0.795499 -14.2141 -6.60703 1.58752 8.367 -8.2066 0.598201 53.7156 -27.232 45.2302 2.19231 -43.463 -0.493189 -178.957 70.5591 179.907 0.733302 -45.8593 -2.64509 -2.36316 15.1801 -22.844 -8.36701 -8.2066 0.598206 -42.5082 -18.1396 -46.1112 -2.19231 -43.463 -0.493104 56.5002 72.2363 -50.9497 -0.733286 -45.8593 -2.6451 2.09746 12.9957 -3.14304 
-9.44396 114.755 -15.1213 164.964 -6.74151 123.491 1.05131e-005 -1.186 -1.5018 -0.181861 -6.44703 -1.34685 3.3689e-007 9.96399 0.213401 -0.522322 -12.8879 -2.74071 4.05445e-007 13.134 -3.2573 -0.522324 -12.8879 -2.74073 4.03389e-006 20.686 -1.6905 -6.73433 -17.2842 -4.71482 8.76377e-006 7.23801 -0.123703 -0.974593 -6.86077 -0.245582 1.7069 20.075 5.0056 37.496 1.72367 0.662862 13.6458 -0.0470187 -4.84901 -21.2631 -55.658 -39.4915 28.3255 -0.975901 2.28879 -58.4801 -29.0494 -127.142 22.1583 -0.529992 10.8316 92.9012 42.0425 -53.8155 0.786004 0.111996 2.5817 8.04948 6.66638 -23.5408 0.360096 -0.877997 4.2331 3.0407 0.516112 5.60553 1.8127 -1.21601 2.2227 6.3997 1.45398 11.8991 0.9571 1.114 1.7695 2.38542e-015 -3.18055e-015 -3.18055e-015 4.1246 0.486992 4.1451 14.1035 3.54578 -9.33297 3.4052 -1.45401 2.7682 7.41597 -3.5149 -2.84402 1.4531 -1.79499 1.2713 7.03253 -3.3225 -2.70694 5.6954 0.209987 2.1184 25.4241 -19.4185 -2.85747 3.9766 -1.53999 2.3863 7.6506 -4.02194 -2.95837 1.4042 -1.926 1.125 17.3996 -9.78525 -5.99621 2.0956 0.66 -0.3894 2.38542e-015 -3.18055e-015 -3.18055e-015 5.0395 -0.0900122 2.4971 36.8058 -18.3153 9.2039 3.7921 -1.55199 1.4806 10.9089 -6.41515 -4.70668 1.4655 -1.808 0.9609 20.0872 -12.6075 -7.79611 4.9141 -1.269 0.3591 39.284 -12.5188 18.1521 3.1477 -1.68501 0.846199 16.6393 -10.8425 -6.53594 0.805498 -1.58501 0.795498 17.35 -11.3559 -6.75068 -1.7069 20.075 5.0056 -29.0349 -1.28802 -2.63193 -13.6458 -0.0470188 -4.849 11.4246 -32.8982 37.4479 -28.3255 -0.975902 2.28881 72.7277 -18.6008 142.79 -22.1583 -0.53001 10.8316 -122.401 19.3605 83.8574 -0.786001 0.112006 2.5817 -17.6566 6.51719 5.01713 -0.360106 -0.877992 4.2331 -6.72056 9.18599 -25.8745 -1.8127 -1.216 2.2227 -8.41783 14.6983 -38.7802 -0.9571 1.114 1.7695 7.95139e-016 -7.95139e-016 6.36111e-015 -4.12461 0.48701 4.1451 -10.4827 6.10541 6.72853 -3.4052 -1.45401 2.7682 -2.94063 -0.993074 0.388056 -1.4531 -1.79499 1.2713 -2.51256 -0.84696 0.334461 -5.6954 0.210002 2.1184 -23.5425 -13.4069 -3.92008 -3.9766 -1.54 2.3863 -3.3329 -1.26913 0.421698 -1.4042 -1.926 1.125 -14.4441 -5.64979 1.28735 -2.0956 0.66 -0.3894 7.95139e-016 -7.95139e-016 6.36111e-015 -5.03951 -0.0899889 2.4971 -31.7317 -10.1428 -15.3842 -3.7921 -1.55201 1.4806 -7.3317 -3.13324 1.12871 -1.4655 -1.80801 0.9609 -18.0828 -7.94423 2.04875 -4.91411 -1.26899 0.359201 -36.0948 -3.21411 -23.8488 -3.1477 -1.68501 0.846197 -13.8842 -6.44987 1.56976 -0.805499 -1.585 0.795499 -14.2141 -6.60703 1.58754 8.36701 -8.2066 0.598195 56.576 -27.5611 46.9629 2.19232 -43.463 -0.493214 -178.942 71.3982 179.936 0.733315 -45.8593 -2.6451 -2.3916 15.2584 -22.5299 -8.36701 -8.20659 0.598205 -44.6366 -18.1498 -47.3813 -2.19231 -43.463 -0.493097 60.1991 72.8257 -54.7242 -0.733303 -45.8593 -2.6451 2.39917 13.0752 -2.50829 
-9.48085 114.658 -15.1194 164.24 -7.31754 123.7 6.33658e-006 -1.186 -1.5018 -0.129923 -6.80866 -1.35653 2.15807e-007 9.964 0.2134 -0.428107 -13.6122 -2.75826 -3.51234e-007 13.134 -3.2573 -0.428105 -13.6122 -2.75827 3.17993e-005 20.686 -1.69052 -6.17987 -15.6213 -4.51724 5.23189e-006 7.23799 -0.123705 -0.384386 -6.6956 -0.366174 1.7069 20.075 5.0056 36.7035 1.54674 -0.380469 13.6458 -0.0470172 -4.849 -21.0033 -55.6363 -39.4782 28.3255 -0.9759 2.2888 -57.9935 -28.9427 -126.422 22.1583 -0.529993 10.8316 92.6746 42.1976 -53.7832 0.786004 0.111995 2.5817 8.08812 6.65501 -23.4724 0.360097 -0.877998 4.2331 2.69872 0.442591 4.97175 1.8127 -1.21601 2.2227 5.95717 1.30745 11.0615 0.9571 1.114 1.7695 7.95139e-016 3.18055e-015 -0 4.1246 0.486992 4.1451 14.1035 3.54579 -9.33298 3.4052 -1.45401 2.7682 7.41596 -3.5149 -2.844 1.4531 -1.79499 1.2713 7.03253 -3.3225 -2.70693 5.6954 0.209988 2.1184 25.4241 -19.4185 -2.85747 3.9766 -1.53999 2.3863 7.6506 -4.02195 -2.95836 1.4042 -1.926 1.125 17.3996 -9.78525 -5.99621 2.0956 0.66 -0.3894 7.95139e-016 3.18055e-015 -0 5.0395 -0.0900112 2.4971 36.8058 -18.3153 9.20389 3.7921 -1.55199 1.4806 10.9089 -6.41515 -4.70668 1.4655 -1.808 0.9609 20.0872 -12.6075 -7.7961 4.9141 -1.269 0.359102 39.284 -12.5188 18.1521 3.1477 -1.685 0.8462 16.6393 -10.8425 -6.53595 0.805497 -1.58501 0.795499 17.35 -11.3559 -6.75067 -1.7069 20.075 5.0056 -29.1659 -1.28738 -2.16948 -13.6458 -0.0470163 -4.84899 11.2793 -32.6842 37.5313 -28.3255 -0.975897 2.28881 72.6077 -18.2976 142.142 -22.1583 -0.530013 10.8316 -122.787 19.2557 84.1859 -0.786001 0.112006 2.5817 -17.8284 6.64004 4.54972 -0.360105 -0.877994 4.2331 -6.82463 9.42878 -26.463 -1.81269 -1.216 2.2227 -8.48426 15.0662 -39.6206 -0.9571 1.114 1.7695 0 0 -0 -4.12461 0.487012 4.1451 -10.5137 6.0909 6.73635 -3.4052 -1.45401 2.7682 -2.94041 -0.993101 0.38801 -1.4531 -1.795 1.2713 -2.51239 -0.846902 0.334438 -5.6954 0.210001 2.1184 -23.5425 -13.4069 -3.92008 -3.9766 -1.54 2.3863 -3.3329 -1.26913 0.421702 -1.4042 -1.926 1.125 -14.4441 -5.64978 1.28735 -2.0956 0.66 -0.3894 0 0 -0 -5.03951 -0.0899867 2.4971 -31.7317 -10.1428 -15.3842 -3.7921 -1.552 1.4806 -7.33169 -3.13324 1.12872 -1.4655 -1.808 0.9609 -18.0828 -7.94423 2.04874 -4.91411 -1.26899 0.359201 -36.0948 -3.21411 -23.8488 -3.1477 -1.68501 0.846199 -13.8842 -6.44987 1.56977 -0.805499 -1.585 0.795499 -14.2141 -6.60703 1.58753 8.36701 -8.2066 0.598199 59.3824 -28.6467 48.9657 2.19231 -43.463 -0.493202 -178.887 72.7771 179.914 0.733314 -45.8593 -2.64512 -2.5814 15.6762 -21.7943 -8.36701 -8.2066 0.598204 -46.63 -18.5639 -49.0144 -2.19229 -43.463 -0.49309 61.9337 73.0833 -56.5434 -0.733297 -45.8593 -2.64509 2.74077 13.1218 -2.55949 
-9.47858 114.569 -15.14 164.137 -7.36328 123.714 -6.70961e-007 -1.186 -1.5018 -0.100364 -6.87967 -1.34759 -2.28835e-007 9.96399 0.213401 -0.369087 -13.755 -2.73742 -2.01291e-007 13.134 -3.2573 -0.369082 -13.755 -2.7374 2.9484e-005 20.686 -1.69051 -5.63252 -15.0958 -4.29309 1.11446e-005 7.238 -0.123707 0.382636 -6.01958 -0.318686 1.7069 20.075 5.0056 36.3538 1.53764 -0.329783 13.6458 -0.0470147 -4.849 -20.4762 -55.095 -39.0412 28.3255 -0.975898 2.28879 -58.241 -29.09 -126.857 22.1583 -0.529988 10.8316 92.5373 42.1389 -53.658 0.786004 0.111997 2.5817 8.28476 6.59758 -23.1245 0.360098 -0.877998 4.2331 2.52599 0.406952 4.65201 1.8127 -1.21601 2.2227 5.73246 1.23578 10.6372 0.9571 1.114 1.7695 -7.95139e-016 0 -3.18055e-015 4.12461 0.486994 4.1451 14.1035 3.54577 -9.33297 3.4052 -1.454 2.7682 7.41596 -3.51492 -2.84401 1.4531 -1.79499 1.2713 7.03253 -3.32252 -2.70692 5.69541 0.209987 2.1184 25.4241 -19.4185 -2.85746 3.9766 -1.53999 2.3863 7.6506 -4.02194 -2.95836 1.4042 -1.926 1.125 17.3996 -9.78524 -5.99619 2.0956 0.66 -0.3894 -7.95139e-016 0 -3.18055e-015 5.03951 -0.0900138 2.4971 36.8058 -18.3153 9.2039 3.7921 -1.55199 1.4806 10.9089 -6.41517 -4.70668 1.4655 -1.808 0.9609 20.0872 -12.6075 -7.79611 4.9141 -1.269 0.359101 39.284 -12.5188 18.1521 3.1477 -1.685 0.8462 16.6393 -10.8425 -6.53595 0.805498 -1.58501 0.795499 17.35 -11.3559 -6.75066 -1.7069 20.075 5.0056 -29.2659 -1.28883 -2.2534 -13.6458 -0.0470153 -4.849 10.7917 -32.2123 37.4774 -28.3255 -0.975892 2.2888 72.7756 -18.1736 142.446 -22.1583 -0.53001 10.8316 -123.096 19.1142 84.257 -0.786001 0.112004 2.5817 -18.0504 6.80321 3.94303 -0.360106 -0.877993 4.2331 -6.9515 9.73428 -27.1998 -1.8127 -1.216 2.2227 -8.55866 15.5215 -40.6592 -0.9571 1.114 1.7695 -7.95139e-016 0 -3.18055e-015 -4.12461 0.48701 4.1451 -10.5446 6.07645 6.74416 -3.4052 -1.45401 2.7682 -2.94043 -0.993014 0.388034 -1.4531 -1.795 1.2713 -2.51223 -0.846842 0.334419 -5.6954 0.21 2.1184 -23.5425 -13.4069 -3.92008 -3.9766 -1.54 2.3863 -3.33291 -1.26912 0.421701 -1.4042 -1.926 1.125 -14.4441 -5.64978 1.28736 -2.0956 0.66 -0.3894 -7.95139e-016 0 -3.18055e-015 -5.03951 -0.0899874 2.4971 -31.7317 -10.1428 -15.3842 -3.7921 -1.55201 1.4806 -7.33169 -3.13324 1.12872 -1.4655 -1.808 0.9609 -18.0828 -7.94423 2.04875 -4.91411 -1.26899 0.359202 -36.0949 -3.21412 -23.8488 -3.14769 -1.68501 0.846198 -13.8842 -6.44986 1.56977 -0.805501 -1.585 0.7955 -14.2141 -6.60702 1.58754 8.367 -8.20659 0.598198 61.4624 -28.8208 49.9828 2.19231 -43.463 -0.493198 -178.772 74.7472 179.795 0.733312 -45.8593 -2.64511 -2.54777 15.6457 -21.0319 -8.367 -8.2066 0.5982 -48.4246 -18.4118 -49.6687 -2.19227 -43.463 -0.493109 62.0758 73.1245 -56.797 -0.733295 -45.8593 -2.64511 2.68013 12.8657 -2.60856 
